<?xml version="1.0" standalone="no"?>
<!DOCTYPE svg PUBLIC "-//W3C//DTD SVG 20010904//EN"
 "http://www.w3.org/TR/2001/REC-SVG-20010904/DTD/svg10.dtd">
<svg version="1.0" xmlns="http://www.w3.org/2000/svg"
 width="1080.000000pt" height="1080.000000pt" viewBox="0 0 1080.000000 1080.000000"
 preserveAspectRatio="xMidYMid meet">

<g transform="translate(0.000000,1080.000000) scale(0.100000,-0.100000)"
fill="#000000" stroke="none">
<path d="M3628 6663 c6 -2 18 -2 25 0 6 3 1 5 -13 5 -14 0 -19 -2 -12 -5z"/>
<path d="M3482 6634 c-101 -29 -207 -79 -293 -136 -60 -40 -62 -43 -37 -46 27
-3 27 -4 -30 -57 -57 -54 -57 -54 -27 -54 22 0 45 13 90 54 59 54 60 54 30 55
-29 0 -28 1 25 39 75 54 186 108 289 142 106 35 68 37 -47 3z"/>
<path d="M4901 6573 c-7 -43 -15 -88 -18 -100 -4 -20 -1 -23 26 -23 17 0 31
-4 31 -10 0 -6 -30 -10 -70 -10 -68 0 -70 -1 -70 -25 0 -24 2 -25 64 -25 59 0
64 -2 59 -20 -4 -14 -14 -20 -33 -20 -32 0 -28 13 -66 -202 -26 -153 -28 -157
-53 -160 -24 -3 -26 -9 -41 -95 l-16 -93 23 0 c13 0 23 -3 23 -7 0 -5 -16
-104 -37 -220 l-37 -213 -28 0 c-29 0 -32 -3 -42 -52 -6 -26 -4 -28 24 -28 16
0 30 -3 30 -7 0 -5 -18 -109 -40 -233 -22 -123 -40 -228 -40 -232 0 -4 8 -8
18 -8 29 0 15 -74 -14 -78 -16 -2 -23 -12 -28 -40 -9 -59 -8 -62 24 -62 24 0
31 5 35 25 3 14 7 36 10 50 3 16 12 25 24 25 13 0 20 10 25 31 9 45 8 47 -12
51 -17 3 -16 18 23 238 l41 235 -29 3 c-27 3 -29 6 -23 34 3 17 6 34 6 39 0 5
13 9 30 9 35 0 29 -18 70 220 17 96 33 185 35 198 5 18 1 22 -21 22 -23 0 -25
3 -20 28 3 15 11 57 17 94 10 61 13 67 37 70 26 3 27 6 57 178 l30 175 31 3
c28 3 32 8 38 40 10 64 8 72 -19 72 -29 0 -29 0 -10 110 8 47 15 86 15 88 0 1
-15 2 -33 2 l-33 0 -13 -77z"/>
<path d="M6435 6628 c-2 -13 -11 -58 -19 -100 l-14 -78 30 0 30 0 -7 -47 c-9
-61 -10 -63 -44 -63 l-27 0 -31 -176 c-17 -97 -34 -179 -38 -182 -3 -3 -62 -8
-130 -10 -124 -4 -125 -5 -125 -28 0 -24 1 -24 101 -24 100 0 101 0 96 -22 -4
-13 -9 -42 -13 -65 -6 -38 -5 -42 18 -45 l24 -3 -33 -185 c-18 -102 -35 -200
-38 -217 -5 -28 -10 -33 -34 -33 -30 0 -41 -15 -41 -56 0 -19 5 -24 26 -24 29
0 29 0 8 -122 -5 -31 -4 -38 10 -38 21 0 21 1 -9 -164 -29 -164 -29 -156 -12
-156 9 0 24 64 51 218 21 119 40 227 43 240 5 19 1 22 -27 22 -29 0 -32 3 -26
23 3 12 6 30 6 40 0 13 8 17 33 17 l32 0 33 193 c19 105 36 204 39 220 5 24 3
27 -22 27 -19 0 -26 4 -22 14 3 8 11 51 18 95 12 78 14 81 39 81 26 0 26 0 54
163 35 207 32 197 66 197 26 0 30 4 35 38 4 20 9 45 12 55 3 13 -2 17 -26 17
-36 0 -35 -6 -16 93 20 106 20 107 -15 107 -23 0 -31 -5 -35 -22z"/>
<path d="M2700 6415 c0 -13 27 -15 185 -15 158 0 185 2 185 15 0 13 -27 15
-185 15 -158 0 -185 -2 -185 -15z"/>
<path d="M2949 6278 c-60 -72 -124 -169 -163 -245 -20 -41 -32 -53 -50 -53
-26 0 -35 -16 -72 -122 l-23 -68 25 0 c13 0 24 -2 24 -4 0 -3 -9 -42 -19 -88
-11 -46 -23 -111 -27 -145 l-7 -63 -53 0 c-30 0 -54 -4 -54 -10 0 -5 24 -10
53 -10 l52 0 -3 -60 c-4 -59 -4 -60 -33 -60 -30 0 -35 -11 -23 -57 5 -17 14
-23 35 -23 24 0 29 -4 29 -23 0 -49 41 -185 79 -262 51 -103 127 -195 161
-195 29 -1 118 -76 98 -83 -36 -13 253 -119 316 -116 20 1 20 1 1 6 -101 22
-277 99 -257 112 15 9 -70 81 -96 81 -37 0 -144 145 -183 249 -18 48 -40 131
-55 209 -3 17 -11 22 -34 22 -28 0 -30 2 -30 40 0 38 2 40 30 40 l30 0 0 74
c0 70 28 264 49 334 9 30 8 32 -15 32 -13 0 -24 1 -24 3 0 9 50 147 59 166 7
12 21 21 34 21 17 0 28 10 41 38 32 67 109 186 163 249 29 34 53 65 53 68 0 3
-13 5 -30 5 -24 0 -39 -12 -81 -62z"/>
<path d="M3846 6191 c40 -25 73 -71 90 -128 21 -68 18 -83 -11 -83 -25 0 -25
0 -25 -95 0 -93 0 -95 24 -95 l23 0 -14 -87 c-16 -102 -47 -237 -69 -305 -14
-42 -19 -48 -44 -48 -16 0 -32 -4 -35 -10 -3 -5 -40 -10 -81 -10 -59 0 -74 -3
-74 -15 0 -12 15 -15 71 -15 59 0 70 -3 65 -15 -4 -11 2 -15 25 -15 l30 0 -27
-50 c-33 -61 -90 -118 -146 -147 -52 -27 -26 -31 44 -7 60 20 122 74 158 138
36 62 36 66 5 66 -25 0 -33 14 -15 25 6 3 10 17 10 31 0 21 5 24 34 24 l34 0
22 81 c23 87 69 312 70 342 0 12 -8 17 -26 17 -24 0 -26 3 -20 31 3 17 6 60 6
95 0 62 1 64 26 64 19 0 24 4 20 18 -2 9 -8 33 -11 52 -17 85 -92 160 -161
160 l-29 0 31 -19z"/>
<path d="M7265 6162 c46 -22 101 -80 121 -128 19 -45 18 -54 -7 -54 -17 0 -20
-4 -15 -22 3 -13 9 -56 13 -95 6 -68 8 -73 29 -73 21 0 24 -5 24 -37 0 -81 -3
-83 -91 -83 -64 0 -79 -3 -79 -15 0 -12 15 -15 79 -15 l79 0 -9 -42 c-14 -63
-49 -167 -71 -210 -15 -31 -24 -38 -48 -38 -23 0 -35 -8 -54 -37 l-23 -38 23
-3 c13 -2 24 -7 24 -12 0 -17 -127 -124 -175 -146 -47 -22 -48 -24 -19 -24 48
0 150 57 212 119 56 55 57 56 30 59 -34 4 -34 4 -5 47 17 28 29 35 54 35 29 0
33 4 61 73 36 86 69 218 75 305 5 60 4 62 -18 62 -21 0 -24 6 -30 58 -4 31
-11 74 -15 95 -7 35 -6 37 16 37 28 0 28 0 12 37 -41 93 -104 147 -188 158
l-45 6 40 -19z"/>
<path d="M6185 4778 c-11 -38 -11 -68 0 -68 15 0 25 22 25 56 0 25 -18 33 -25
12z"/>
<path d="M2740 4760 c0 -6 33 -10 80 -10 47 0 80 4 80 10 0 6 -33 10 -80 10
-47 0 -80 -4 -80 -10z"/>
<path d="M6125 4664 c-3 -25 -4 -48 -1 -52 11 -11 24 12 31 56 5 33 4 42 -8
42 -10 0 -17 -15 -22 -46z"/>
</g>
</svg>
